<svg width="28" height="28" viewBox="0 0 28 28"
									xmlns="https://www.w3.org/2000/svg">
									<defs>
										<path
											d="M16.46 12.565c-.631.802-1.025 1.667-1.039 2.59-.02 1.45.793 2.538 2.286 3.154l.116.038c3.487.898 5.788 2.958 5.788 5.03l.014 1.226c0 .026-.194.188-.35.189H4.662c-.136 0-.274-.122-.274-.178l-.014-1.248c0-1.997 2.086-3.93 5.412-4.868a4.468 4.468 0 0 0 1.275-.538c.775-.474 1.316-1.135 1.448-2.014a.875.875 0 0 0-1.731-.259c-.044.292-.256.552-.629.779a2.898 2.898 0 0 1-.795.337c-4.04 1.137-6.73 3.632-6.73 6.573l.014 1.248c0 1.062.965 1.918 2.024 1.918h18.613c1.061-.003 2.099-.871 2.099-1.949l-.014-1.227c0-3.003-2.9-5.612-7.039-6.697-.825-.354-1.16-.816-1.15-1.49.006-.473.248-1.003.663-1.53.272-.346.545-.606.71-.736l.087-.08c1.233-1.29 2.03-3 2.03-4.666 0-3.648-3.053-6.709-6.692-6.709-3.639 0-6.692 3.061-6.692 6.709 0 1.57.443 2.914 1.357 4.048a.875.875 0 1 0 1.363-1.097c-.655-.813-.97-1.768-.97-2.951 0-2.682 2.27-4.959 4.942-4.959s4.941 2.276 4.941 4.959c0 1.162-.587 2.437-1.506 3.417-.258.211-.6.545-.944.981z"
											id="IconProfileThick-a"></path>
									</defs>
									<g fill="none" fill-rule="evenodd">
										<mask id="IconProfileThick-b" fill="#fff">
											<use xlink:href="#IconProfileThick-a"></use>
										</mask>
										<use fill="#333" fill-rule="nonzero" xlink:href="#IconProfileThick-a"></use>
										<g mask="url(#IconProfileThick-b)" fill="#333">
											<path d="M0 0h28v28H0z"></path>
										</g>
									</g>
								</svg>