<svg width="32" height="32" viewBox="0 0 28 28"
									xmlns="https://www.w3.org/2000/svg">
									<defs>
										<path
											d="M10.208 25.083a.875.875 0 0 1-.875-.875v-6.125h-1.75v6.125a.875.875 0 0 1-.875.875H2.042a.875.875 0 0 1-.875-.875V4.375c0-.483.391-.875.875-.875h12.833c.483 0 .875.392.875.875v3.791h9.625c.446 0 .814.334.868.766l.007.11v10.5a.875.875 0 0 1-1.75 0V9.917h-8.75v13.416h9.625a.875.875 0 0 1 0 1.75H10.208zM14 5.25H2.917v18.083h2.916v-6.125c0-.483.392-.875.875-.875h3.5c.484 0 .875.392.875.875v6.125H14V5.25zm4.375 10.792c.644 0 1.167.522 1.167 1.166v1.167a1.167 1.167 0 0 1-2.334 0v-1.167c0-.644.523-1.166 1.167-1.166zm0-4.667c.644 0 1.167.522 1.167 1.167v1.166a1.167 1.167 0 0 1-2.334 0v-1.166c0-.645.523-1.167 1.167-1.167zm-11.5 0a1 1 0 0 1 1 1v1.5a1 1 0 0 1-1 1h-.333a1 1 0 0 1-1-1v-1.5a1 1 0 0 1 1-1h.333zm0-4.667a1 1 0 0 1 1 1v1.5a1 1 0 0 1-1 1h-.333a1 1 0 0 1-1-1v-1.5a1 1 0 0 1 1-1h.333z"
											id="building-icon-a"></path>
									</defs>
									<g fill="none" fill-rule="evenodd">
										<mask id="building-icon-b" fill="#fff">
											<use xlink:href="#building-icon-a"></use>
										</mask>
										<use fill="#333" fill-rule="nonzero" xlink:href="#building-icon-a"></use>
										<g mask="url(#building-icon-b)" fill="#333">
											<path d="M0 0h28v28H0z"></path>
										</g>
									</g>
								</svg>