<svg width="30" height="30" viewBox="0 0 15 15" fill="none"
									xmlns="https://www.w3.org/2000/svg">
									<path
										d="M4.66699 10.51C5.55699 10.51 6.30999 11.11 6.54099 11.927H13.875C14.168 11.927 14.406 12.165 14.406 12.458C14.406 12.752 14.168 12.99 13.875 12.99H6.54099C6.30999 13.807 5.55799 14.406 4.66699 14.406C3.77499 14.406 3.02299 13.806 2.79199 12.989H1.12499C0.831994 12.989 0.593994 12.752 0.593994 12.459C0.593994 12.165 0.831994 11.927 1.12499 11.927H2.79199C3.02399 11.109 3.77599 10.51 4.66699 10.51V10.51ZM4.66699 11.573C4.17799 11.573 3.78099 11.97 3.78099 12.458C3.78099 12.947 4.17799 13.344 4.66699 13.344C5.15499 13.344 5.55199 12.947 5.55199 12.458C5.55199 11.97 5.15499 11.573 4.66699 11.573ZM10.333 5.55299C11.225 5.55299 11.977 6.15199 12.208 6.96899H13.875C14.168 6.96899 14.406 7.20699 14.406 7.49999C14.406 7.79299 14.168 8.03099 13.875 8.03099H12.208C11.976 8.84899 11.224 9.44799 10.333 9.44799C9.44299 9.44799 8.68999 8.84799 8.45899 8.03199H1.12499C0.831994 8.03199 0.593994 7.79299 0.593994 7.49999C0.593994 7.20699 0.831994 6.96899 1.12499 6.96899H8.45899C8.68999 6.15199 9.44199 5.55199 10.333 5.55199V5.55299ZM10.333 6.61499C9.84499 6.61499 9.44799 7.01099 9.44799 7.49999C9.44799 7.98899 9.84499 8.38499 10.333 8.38499C10.822 8.38499 11.219 7.98899 11.219 7.49999C11.219 7.01099 10.822 6.61499 10.333 6.61499V6.61499ZM4.66699 0.593994C5.55699 0.593994 6.30999 1.19299 6.54099 2.00999H13.875C14.168 2.00999 14.406 2.24799 14.406 2.54199C14.406 2.83499 14.168 3.07199 13.875 3.07199L6.54099 3.07399C6.30899 3.89099 5.55799 4.48999 4.66699 4.48999C3.77599 4.48999 3.02399 3.88999 2.79199 3.07399L1.12499 3.07299C0.831994 3.07299 0.593994 2.83499 0.593994 2.54199C0.593994 2.24799 0.831994 2.00999 1.12499 2.00999H2.79199C3.02399 1.19299 3.77599 0.593994 4.66699 0.593994V0.593994ZM4.66699 1.65599C4.17799 1.65599 3.78099 2.05299 3.78099 2.54199C3.78099 3.02999 4.17799 3.42699 4.66699 3.42699C5.15499 3.42699 5.55199 3.02999 5.55199 2.54199C5.55199 2.05299 5.15499 1.65599 4.66699 1.65599V1.65599Z"
										fill="#333"></path>
								</svg>